<svg version="1.1" id="Layer_1" xmlns="http://www.w3.org/2000/svg" xmlns:xlink="http://www.w3.org/1999/xlink" x="0px" y="0px" viewBox="0 0 1000 375" style="enable-background:new 0 0 1000 375;" xml:space="preserve">
<style type="text/css">
	.st0{fill:#FFFFFF;}
	.st1{fill:#89E1F3;}
</style>
	<g>
	<polygon class="st0" points="32.84,197.93 21.6,210.02 21.6,239.98 0,239.98 0,135.12 21.6,135.12 21.6,182.65 31.11,169.62    57.83,135.12 84.41,135.12 47.17,181.72 85.48,239.98 59.77,239.98  "/>
		<polygon class="st0" points="373.57,152.63 341.46,152.63 341.46,239.98 319.85,239.98 319.85,152.63 288.16,152.63 288.16,135.12    373.57,135.12  "/>
		<path class="st0" d="M425.97,91.74l14.83-14.83l-29.66-14.74L425.97,91.74z M454,83.5l-21.43,21.43l8.15,16.3l-13,13l-37.24-81.4   l11.33-11.33l81.52,37.12l-12.99,13L454,83.5z"/>
		<path class="st0" d="M251.04,312.77l-14.74-29.66l-14.83,14.83L251.04,312.77z M221.58,253.58l12.99-12.99l37.12,81.52   l-11.33,11.33l-81.4-37.24l13-13l16.3,8.15l21.43-21.43L221.58,253.58z"/>
		<path class="st0" d="M338.95,48.23V32.5l-23.55,7.91L338.95,48.23z M349.45,29v22.73l12.96,4.32v13.79L299.5,46.41V34.4   l62.92-23.55v13.78L349.45,29z"/>
		<path class="st0" d="M241.77,74.75l-7.42-7.42l-7.37,14.83L241.77,74.75z M237.65,60.73l10.71,10.71l8.15-4.08l6.5,6.5l-40.7,18.62   l-5.67-5.67l18.56-40.76l6.5,6.5L237.65,60.73z"/>
		<path class="st0" d="M463.51,200.87h26.22l-13.18-39.24L463.51,200.87z M495.57,218.37h-37.88l-7.2,21.61h-22.98l39.03-104.86   h20.03l39.25,104.86h-22.97L495.57,218.37z"/>
		<path class="st0" d="M198.38,174.21h-26.22l13.18,39.24L198.38,174.21z M166.33,156.71h37.88l7.2-21.61h22.98l-39.03,104.86h-20.03   L136.09,135.1h22.97L166.33,156.71z"/>
		<path class="st0" d="M322.94,326.77v15.73l23.55-7.91L322.94,326.77z M312.45,346v-22.73l-12.97-4.32v-13.79l62.92,23.42v12.02   l-62.92,23.55v-13.78L312.45,346z"/>
		<path class="st0" d="M419.73,299.99l7.42,7.42l7.37-14.83L419.73,299.99z M423.85,314l-10.71-10.71l-8.15,4.08l-6.5-6.5l40.7-18.62   l5.66,5.66l-18.56,40.76l-6.5-6.5L423.85,314z"/>
</g>
	<g>
	<g>
		<path class="st0" d="M591.81,121.71c0-3.74-0.74-6.81-2.21-9.21c-1.47-2.41-3.64-3.61-6.51-3.61c-1.73,0-3.2,0.39-4.41,1.17    c-1.22,0.78-2.2,1.85-2.96,3.21v15.93c0.75,1.36,1.73,2.42,2.96,3.18c1.22,0.76,2.71,1.14,4.48,1.14c2.84,0,4.99-1.04,6.46-3.12    c1.46-2.08,2.2-4.77,2.2-8.06V121.71z M597.81,122.35c0,4.75-1.14,8.59-3.41,11.5c-2.27,2.92-5.41,4.37-9.41,4.37    c-2.03,0-3.81-0.34-5.34-1.02c-1.53-0.68-2.84-1.7-3.92-3.06v16.12h-6v-45.63h4.59l0.95,4.26c1.08-1.58,2.42-2.79,4.03-3.62    c1.6-0.83,3.47-1.25,5.6-1.25c4.09,0,7.26,1.62,9.52,4.86c2.27,3.24,3.4,7.52,3.4,12.84V122.35z"/>
		<path class="st0" d="M620.78,109.93l-3.08-0.18c-1.59,0-2.92,0.37-4.01,1.12c-1.08,0.75-1.92,1.81-2.51,3.17v23.54h-6v-32.96h5.36    l0.57,4.81c0.94-1.7,2.09-3.04,3.46-3.99c1.37-0.96,2.95-1.43,4.74-1.43c0.44,0,0.87,0.04,1.28,0.11c0.4,0.07,0.74,0.15,1.01,0.23    L620.78,109.93z"/>
		<path class="st0" d="M631.01,121.47c0,3.49,0.74,6.38,2.21,8.65c1.47,2.27,3.66,3.41,6.56,3.41c2.87,0,5.04-1.14,6.52-3.41    c1.48-2.28,2.22-5.16,2.22-8.65v-0.67c0-3.45-0.74-6.32-2.24-8.62c-1.49-2.3-3.68-3.44-6.56-3.44c-2.87,0-5.04,1.15-6.51,3.44    c-1.47,2.29-2.21,5.17-2.21,8.62V121.47z M625.01,120.8c0-4.87,1.32-8.89,3.96-12.05c2.64-3.16,6.22-4.74,10.75-4.74    c4.57,0,8.18,1.58,10.82,4.72c2.66,3.15,3.98,7.17,3.98,12.06v0.67c0,4.92-1.32,8.93-3.96,12.06c-2.64,3.13-6.23,4.69-10.78,4.69    c-4.54,0-8.14-1.56-10.79-4.71c-2.66-3.14-3.98-7.15-3.98-12.05V120.8z"/>
		<path class="st0" d="M666.8,122.35c0,3.31,0.68,5.97,2.04,7.98c1.36,2.01,3.46,3.01,6.3,3.01c1.81,0,3.32-0.41,4.54-1.23    c1.22-0.82,2.23-1.99,3.02-3.49v-15.17c-0.77-1.41-1.78-2.52-3.02-3.34c-1.23-0.82-2.73-1.23-4.48-1.23    c-2.86,0-4.97,1.19-6.34,3.56c-1.37,2.38-2.06,5.46-2.06,9.26V122.35z M660.8,121.72c0-5.3,1.13-9.57,3.39-12.83    c2.27-3.25,5.43-4.87,9.49-4.87c2.09,0,3.93,0.42,5.51,1.26c1.58,0.84,2.91,2.06,3.99,3.64l0.73-4.29h4.78v33.14    c0,4.23-1.23,7.47-3.68,9.73c-2.46,2.26-6.01,3.39-10.63,3.39c-1.59,0-3.3-0.22-5.13-0.65c-1.84-0.44-3.46-1.03-4.86-1.78    l0.91-4.66c1.16,0.61,2.55,1.1,4.19,1.48c1.63,0.38,3.25,0.56,4.83,0.56c2.92,0,5.05-0.67,6.38-1.99    c1.32-1.33,1.99-3.36,1.99-6.08v-3.75c-1.08,1.38-2.36,2.43-3.87,3.14c-1.51,0.71-3.25,1.07-5.22,1.07    c-4.02,0-7.16-1.45-9.43-4.37c-2.26-2.91-3.39-6.74-3.39-11.5V121.72z"/>
		<path class="st0" d="M712.92,109.93l-3.08-0.18c-1.59,0-2.92,0.37-4.01,1.12c-1.08,0.75-1.92,1.81-2.51,3.17v23.54h-6v-32.96h5.36    l0.57,4.81c0.94-1.7,2.09-3.04,3.46-3.99c1.37-0.96,2.95-1.43,4.74-1.43c0.44,0,0.87,0.04,1.28,0.11c0.4,0.07,0.74,0.15,1.01,0.23    L712.92,109.93z"/>
		<path class="st0" d="M729.46,133.2c2.17,0,4.13-0.56,5.88-1.68c1.75-1.12,2.89-2.4,3.41-3.84v-5.36h-6.73    c-2.41,0-4.35,0.61-5.8,1.83c-1.45,1.22-2.18,2.65-2.18,4.29c0,1.46,0.46,2.62,1.37,3.47C726.32,132.77,727.67,133.2,729.46,133.2     M739.42,137.58c-0.2-0.99-0.36-1.87-0.47-2.64c-0.12-0.76-0.18-1.52-0.2-2.3c-1.11,1.59-2.58,2.91-4.37,3.98    c-1.8,1.07-3.74,1.6-5.8,1.6c-3.43,0-6.05-0.87-7.85-2.63c-1.8-1.76-2.7-4.18-2.7-7.26c0-3.15,1.28-5.61,3.83-7.39    c2.54-1.78,6-2.66,10.37-2.66h6.51v-3.26c0-1.93-0.59-3.46-1.77-4.58c-1.18-1.13-2.84-1.69-5-1.69c-1.94,0-3.52,0.48-4.72,1.46    c-1.19,0.97-1.79,2.14-1.79,3.5l-5.7,0.06l-0.06-0.18c-0.15-2.4,0.98-4.59,3.37-6.58c2.38-1.99,5.47-2.98,9.24-2.98    c3.74,0,6.74,0.95,9.02,2.85c2.28,1.9,3.41,4.63,3.41,8.21v15.87c0,1.18,0.06,2.31,0.18,3.41c0.12,1.1,0.35,2.17,0.67,3.23H739.42    z"/>
		<path class="st0" d="M758.82,104.63l0.43,4.33c1.08-1.57,2.44-2.78,4.09-3.64c1.65-0.86,3.58-1.3,5.77-1.3    c2.2,0,4.08,0.51,5.65,1.52c1.57,1.02,2.76,2.54,3.55,4.57c1.06-1.89,2.43-3.37,4.12-4.46c1.7-1.08,3.68-1.63,5.96-1.63    c3.35,0,6,1.15,7.95,3.45c1.95,2.31,2.92,5.78,2.92,10.4v19.71h-6v-19.77c0-3.25-0.56-5.55-1.68-6.9c-1.11-1.35-2.78-2.03-5-2.03    c-2.05,0-3.7,0.71-4.98,2.14c-1.27,1.42-2.01,3.22-2.24,5.39v0.24v20.93h-6.03v-19.77c0-3.09-0.57-5.35-1.72-6.78    c-1.16-1.43-2.8-2.15-4.96-2.15c-1.82,0-3.33,0.38-4.5,1.13c-1.18,0.75-2.08,1.81-2.71,3.17v24.4h-6v-32.96H758.82z"/>
		<path class="st0" d="M813.35,104.63l0.43,4.33c1.07-1.57,2.44-2.78,4.09-3.64c1.65-0.86,3.58-1.3,5.77-1.3    c2.2,0,4.08,0.51,5.65,1.52c1.57,1.02,2.76,2.54,3.55,4.57c1.06-1.89,2.43-3.37,4.12-4.46c1.7-1.08,3.68-1.63,5.96-1.63    c3.35,0,6,1.15,7.95,3.45c1.95,2.31,2.92,5.78,2.92,10.4v19.71h-6v-19.77c0-3.25-0.56-5.55-1.68-6.9c-1.11-1.35-2.78-2.03-5-2.03    c-2.05,0-3.7,0.71-4.98,2.14c-1.27,1.42-2.01,3.22-2.24,5.39v0.24v20.93h-6.03v-19.77c0-3.09-0.57-5.35-1.72-6.78    c-1.16-1.43-2.8-2.15-4.96-2.15c-1.82,0-3.33,0.38-4.5,1.13c-1.18,0.75-2.08,1.81-2.71,3.17v24.4h-6v-32.96H813.35z"/>
	</g>
		<path class="st0" d="M868.99,137.59h-6v-32.96h6V137.59z M868.99,96.19h-6v-6.12h6V96.19z"/>
		<path class="st0" d="M883.59,104.63l0.43,4.9c1.09-1.75,2.47-3.1,4.12-4.07c1.65-0.97,3.53-1.44,5.65-1.44   c3.55,0,6.3,1.04,8.26,3.12c1.95,2.08,2.92,5.29,2.92,9.64v20.81h-6V116.9c0-2.9-0.58-4.96-1.73-6.18   c-1.15-1.22-2.9-1.83-5.26-1.83c-1.85,0-3.41,0.37-4.71,1.11c-1.28,0.74-2.31,1.78-3.06,3.12v24.46h-6v-32.96H883.59z"/>
		<path class="st0" d="M918.61,122.35c0,3.31,0.68,5.97,2.04,7.98c1.36,2.01,3.46,3.01,6.3,3.01c1.81,0,3.32-0.41,4.54-1.23   c1.22-0.82,2.23-1.99,3.02-3.49v-15.17c-0.77-1.41-1.78-2.52-3.02-3.34c-1.23-0.82-2.73-1.23-4.48-1.23   c-2.86,0-4.97,1.19-6.34,3.56c-1.37,2.38-2.06,5.46-2.06,9.26V122.35z M912.61,121.72c0-5.3,1.13-9.57,3.39-12.83   c2.27-3.25,5.43-4.87,9.49-4.87c2.09,0,3.93,0.42,5.51,1.26c1.58,0.84,2.91,2.06,3.99,3.64l0.73-4.29h4.78v33.14   c0,4.23-1.23,7.47-3.68,9.73c-2.46,2.26-6,3.39-10.63,3.39c-1.59,0-3.3-0.22-5.13-0.65c-1.84-0.44-3.46-1.03-4.86-1.78l0.91-4.66   c1.15,0.61,2.55,1.1,4.19,1.48c1.63,0.38,3.25,0.56,4.83,0.56c2.92,0,5.05-0.67,6.38-1.99c1.32-1.33,1.99-3.36,1.99-6.08v-3.75   c-1.08,1.38-2.36,2.43-3.87,3.14c-1.51,0.71-3.25,1.07-5.22,1.07c-4.02,0-7.16-1.45-9.43-4.37c-2.26-2.91-3.39-6.74-3.39-11.5   V121.72z"/>
</g>
	<g>
	<path class="st0" d="M580.02,200.22c2.17,0,4.13-0.56,5.88-1.68c1.75-1.12,2.89-2.4,3.41-3.84v-5.36h-6.73   c-2.41,0-4.35,0.61-5.8,1.83c-1.45,1.22-2.18,2.65-2.18,4.29c0,1.46,0.46,2.62,1.37,3.47   C576.88,199.79,578.23,200.22,580.02,200.22 M589.98,204.6c-0.2-0.99-0.36-1.87-0.47-2.64c-0.11-0.76-0.18-1.53-0.2-2.3   c-1.11,1.59-2.57,2.91-4.37,3.98c-1.8,1.07-3.74,1.6-5.8,1.6c-3.43,0-6.05-0.88-7.85-2.63c-1.8-1.76-2.7-4.18-2.7-7.26   c0-3.15,1.28-5.61,3.83-7.39c2.54-1.78,6.01-2.66,10.37-2.66h6.51v-3.26c0-1.93-0.59-3.46-1.77-4.58c-1.18-1.13-2.84-1.69-5-1.69   c-1.94,0-3.52,0.48-4.72,1.46c-1.2,0.97-1.79,2.14-1.79,3.5l-5.7,0.06l-0.06-0.18c-0.15-2.4,0.98-4.59,3.37-6.58   c2.38-1.99,5.46-2.98,9.24-2.98c3.74,0,6.74,0.95,9.02,2.85c2.28,1.9,3.41,4.63,3.41,8.21v15.87c0,1.18,0.06,2.31,0.18,3.41   c0.12,1.1,0.35,2.17,0.67,3.23H589.98z"/>
		<path class="st0" d="M617.12,200.55c1.85,0,3.46-0.61,4.84-1.84c1.38-1.23,2.08-2.74,2.08-4.53h5.42l0.09,0.18   c0.08,2.84-1.14,5.37-3.66,7.57c-2.52,2.2-5.44,3.3-8.77,3.3c-4.63,0-8.2-1.57-10.72-4.72c-2.52-3.15-3.78-7.07-3.78-11.76v-1.28   c0-4.65,1.27-8.55,3.79-11.71c2.53-3.16,6.09-4.74,10.7-4.74c3.68,0,6.69,1.14,9.03,3.41c2.35,2.28,3.48,5.07,3.4,8.38l-0.06,0.18   h-5.45c0-2.01-0.65-3.72-1.96-5.13c-1.32-1.41-2.96-2.12-4.96-2.12c-2.94,0-5.09,1.14-6.44,3.43c-1.35,2.28-2.03,5.05-2.03,8.3   v1.28c0,3.31,0.67,6.1,2,8.38C611.97,199.41,614.13,200.55,617.12,200.55"/>
		<path class="st0" d="M646.97,200.22c2.17,0,4.13-0.56,5.88-1.68c1.75-1.12,2.89-2.4,3.41-3.84v-5.36h-6.73   c-2.41,0-4.35,0.61-5.8,1.83c-1.45,1.22-2.18,2.65-2.18,4.29c0,1.46,0.46,2.62,1.37,3.47   C643.83,199.79,645.19,200.22,646.97,200.22 M656.93,204.6c-0.2-0.99-0.36-1.87-0.47-2.64c-0.11-0.76-0.18-1.53-0.2-2.3   c-1.11,1.59-2.57,2.91-4.37,3.98c-1.8,1.07-3.74,1.6-5.8,1.6c-3.43,0-6.05-0.88-7.85-2.63c-1.8-1.76-2.7-4.18-2.7-7.26   c0-3.15,1.28-5.61,3.83-7.39c2.54-1.78,6.01-2.66,10.37-2.66h6.51v-3.26c0-1.93-0.59-3.46-1.77-4.58c-1.18-1.13-2.84-1.69-5-1.69   c-1.94,0-3.52,0.48-4.72,1.46c-1.19,0.97-1.79,2.14-1.79,3.5l-5.7,0.06l-0.06-0.18c-0.15-2.4,0.98-4.59,3.37-6.58   c2.38-1.99,5.46-2.98,9.24-2.98c3.74,0,6.74,0.95,9.02,2.85c2.28,1.9,3.41,4.63,3.41,8.21v15.87c0,1.18,0.06,2.31,0.18,3.41   c0.12,1.1,0.35,2.17,0.67,3.23H656.93z"/>
		<path class="st0" d="M675.6,189.37c0,3.33,0.68,6,2.04,8c1.36,2,3.47,3,6.34,3c1.78,0,3.29-0.41,4.5-1.22   c1.22-0.81,2.22-1.95,2.99-3.41v-15.39c-0.77-1.36-1.77-2.44-2.99-3.24c-1.23-0.8-2.71-1.21-4.43-1.21c-2.89,0-5.01,1.19-6.38,3.56   c-1.37,2.38-2.06,5.47-2.06,9.26V189.37z M669.6,188.73c0-5.3,1.13-9.57,3.4-12.83c2.26-3.25,5.43-4.87,9.52-4.87   c1.93,0,3.64,0.36,5.13,1.07c1.49,0.71,2.76,1.75,3.82,3.11v-18.12h6.01v47.52h-4.6l-0.91-4.17c-1.08,1.58-2.41,2.78-4,3.59   c-1.58,0.81-3.42,1.22-5.51,1.22c-4.02,0-7.17-1.45-9.44-4.37c-2.27-2.91-3.41-6.74-3.41-11.5V188.73z"/>
		<path class="st0" d="M719.12,175.76c-2.09,0-3.82,0.81-5.19,2.42c-1.37,1.61-2.21,3.68-2.51,6.2l0.06,0.15h14.87v-0.48   c0-2.4-0.59-4.38-1.77-5.94C723.4,176.54,721.59,175.76,719.12,175.76 M720.07,205.24c-4.73,0-8.42-1.51-11.07-4.54   c-2.66-3.03-3.98-7.01-3.98-11.94v-1.34c0-4.73,1.37-8.64,4.1-11.74c2.73-3.09,6.06-4.64,10-4.64c4.41,0,7.72,1.37,9.92,4.11   c2.2,2.74,3.3,6.39,3.3,10.93v3.17h-21.08l-0.1,0.15c0,3.31,0.74,6,2.2,8.06c1.46,2.06,3.7,3.09,6.7,3.09   c2.03,0,3.82-0.29,5.35-0.87c1.53-0.58,2.84-1.38,3.94-2.39l2.35,3.9c-1.18,1.14-2.74,2.1-4.66,2.88   C725.12,204.85,722.79,205.24,720.07,205.24"/>
		<path class="st0" d="M744.45,171.65l0.43,4.33c1.08-1.57,2.44-2.78,4.09-3.64c1.65-0.86,3.58-1.3,5.77-1.3   c2.2,0,4.08,0.51,5.65,1.52c1.58,1.02,2.76,2.54,3.55,4.57c1.06-1.89,2.43-3.37,4.13-4.46c1.69-1.09,3.68-1.63,5.96-1.63   c3.35,0,6,1.15,7.95,3.46c1.95,2.31,2.92,5.77,2.92,10.4v19.71h-6v-19.77c0-3.25-0.56-5.55-1.68-6.9c-1.12-1.35-2.78-2.03-5-2.03   c-2.05,0-3.71,0.71-4.98,2.14c-1.27,1.42-2.01,3.22-2.24,5.39v0.24v20.93h-6.03v-19.77c0-3.09-0.57-5.35-1.72-6.78   c-1.15-1.43-2.8-2.15-4.96-2.15c-1.82,0-3.32,0.38-4.5,1.13c-1.18,0.75-2.08,1.81-2.71,3.17v24.4h-6v-32.96H744.45z"/>
		<path class="st0" d="M803.68,192.39l1.07,4.14h0.18l8.1-24.88h6.68l-13.86,38.01c-0.84,2.21-2.03,4.14-3.58,5.79   c-1.55,1.64-3.65,2.47-6.29,2.47c-0.48,0-1.11-0.06-1.86-0.17c-0.75-0.11-1.33-0.22-1.74-0.32l0.61-4.72   c-0.12-0.02,0.24,0,1.08,0.06c0.84,0.06,1.38,0.09,1.6,0.09c1.28,0,2.32-0.57,3.14-1.7c0.81-1.14,1.49-2.4,2.04-3.78l1.43-3.44   l-12.24-32.29h6.7L803.68,192.39z"/>
</g>
	<g>
	<path class="st1" d="M569.72,268.58V224.1h5.4v19.8c1.13-1.08,2.57-1.95,4.3-2.6c1.73-0.65,3.46-0.98,5.17-0.98   c4.46,0,7.97,1.42,10.54,4.26c2.62,2.8,3.92,6.51,3.92,11.15c0,5-1.53,8.99-4.59,11.97c-3.07,2.93-7.17,4.39-12.3,4.39   C577.06,272.09,572.92,270.92,569.72,268.58z M583.38,245.4c-1.58,0-3.13,0.38-4.67,1.15c-1.53,0.77-2.72,1.69-3.58,2.77v15.62   c2.08,1.4,4.51,2.1,7.3,2.1c3.2,0,5.81-0.99,7.84-2.98c2.03-1.98,3.03-4.62,3.03-7.9c0-3.33-0.9-5.96-2.7-7.87   C588.8,246.35,586.39,245.4,583.38,245.4z"/>
		<path class="st1" d="M627.1,241h6.16l-12.17,30.42c-2.21,5.36-4.12,8.92-5.75,10.68c-1.71,1.9-3.67,2.84-5.88,2.84   c-1.98,0-3.9-0.63-5.75-1.89l1.76-4.12c1.44,0.67,2.57,1.01,3.38,1.01c1.26,0,2.4-0.54,3.41-1.62c1.02-1.08,2.04-2.84,3.08-5.27   l0.68-1.62L601.42,241h6.49l8.92,19.33c0.18,0.32,0.79,1.85,1.83,4.6c0.4-1.49,0.88-3.04,1.42-4.67L627.1,241z"/>
		<path class="st1" d="M661.58,224.1h5.75v36.57c0,7.62-3.44,11.42-10.34,11.42c-3.11,0-5.5-0.83-7.17-2.5l1.96-4.39   c1.26,0.99,2.75,1.49,4.46,1.49c3.56,0,5.34-2.32,5.34-6.96V224.1z"/>
		<path class="st1" d="M680.91,247.42l-1.42-4.33c3.02-1.85,6.4-2.77,10.14-2.77c4.1,0,7.07,1.01,8.92,3.04   c1.84,2.03,2.77,5.16,2.77,9.4v18.66h-5.14v-3.92c-2.39,2.93-5.63,4.4-9.73,4.4c-2.8,0-5.05-0.85-6.77-2.53   c-1.71-1.69-2.57-3.98-2.57-6.86c0-2.97,1.06-5.33,3.17-7.07c2.12-1.73,4.89-2.6,8.31-2.6c3.2,0,5.72,0.65,7.57,1.96   c0-3.43-0.48-5.88-1.42-7.37c-0.95-1.49-2.77-2.23-5.48-2.23C686.54,245.19,683.75,245.93,680.91,247.42z M688.34,267.03   c3.02,0,5.63-1.31,7.84-3.92v-3.85c-1.9-1.35-4.17-2.03-6.83-2.03c-1.85,0-3.39,0.44-4.63,1.32c-1.23,0.88-1.85,2.1-1.85,3.68   c0,1.49,0.48,2.66,1.45,3.51C685.29,266.6,686.63,267.03,688.34,267.03z"/>
		<path class="st1" d="M731.59,241h5.75l-13.45,30.69h-3.92L705.85,241h6.36l7.37,16.43c0.85,1.89,1.71,4.15,2.57,6.76   c0.63-2.12,1.46-4.42,2.5-6.9L731.59,241z"/>
		<path class="st1" d="M744.17,247.42l-1.42-4.33c3.02-1.85,6.4-2.77,10.14-2.77c4.1,0,7.07,1.01,8.92,3.04   c1.84,2.03,2.77,5.16,2.77,9.4v18.66h-5.14v-3.92c-2.39,2.93-5.63,4.4-9.73,4.4c-2.8,0-5.05-0.85-6.77-2.53   c-1.71-1.69-2.57-3.98-2.57-6.86c0-2.97,1.06-5.33,3.17-7.07c2.12-1.73,4.89-2.6,8.31-2.6c3.2,0,5.72,0.65,7.57,1.96   c0-3.43-0.48-5.88-1.42-7.37c-0.95-1.49-2.77-2.23-5.48-2.23C749.8,245.19,747.01,245.93,744.17,247.42z M751.6,267.03   c3.02,0,5.63-1.31,7.84-3.92v-3.85c-1.9-1.35-4.17-2.03-6.83-2.03c-1.85,0-3.39,0.44-4.63,1.32c-1.23,0.88-1.85,2.1-1.85,3.68   c0,1.49,0.48,2.66,1.45,3.51C748.55,266.6,749.89,267.03,751.6,267.03z"/>
		<path class="st1" d="M796.83,271.42h-5.75V224.1h5.82l17.77,24.27l17.03-24.27h5.47v47.31h-5.74v-38.26l-16.77,23.52h-0.88   l-16.97-23.32V271.42z"/>
		<path class="st1" d="M873.13,263.85l1.69,4.26c-2.93,2.66-6.73,3.99-11.42,3.99c-4.96,0-8.9-1.44-11.83-4.32   c-2.97-2.89-4.46-6.74-4.46-11.56c0-4.55,1.4-8.33,4.19-11.36c2.75-3.02,6.58-4.53,11.5-4.53c4.05,0,7.41,1.31,10.07,3.92   c2.7,2.57,4.05,5.9,4.05,10c0,1.31-0.11,2.53-0.34,3.65h-23.38c0.23,2.84,1.3,5.07,3.21,6.69c1.91,1.62,4.38,2.43,7.4,2.43   C867.77,267.03,870.88,265.97,873.13,263.85z M862.52,245.4c-2.66,0-4.86,0.74-6.59,2.23c-1.74,1.49-2.77,3.45-3.08,5.88h18.45   c-0.13-2.52-0.98-4.5-2.53-5.95C867.22,246.12,865.13,245.4,862.52,245.4z"/>
		<path class="st1" d="M889.69,271.42h-5.4V241h5.4v3.72c1.13-1.26,2.61-2.29,4.43-3.07c1.82-0.79,3.66-1.18,5.5-1.18   c8.43,0,12.64,4.46,12.64,13.38v17.57h-5.41v-16.56c0-6.22-2.86-9.33-8.58-9.33c-3.43,0-6.29,1.31-8.59,3.92V271.42z"/>
		<path class="st1" d="M920.71,259.86v-27.31h5.41V241h11.15v5.07h-11.15v13.25c0,5.05,1.8,7.57,5.41,7.57   c1.76,0,3.36-0.56,4.79-1.69l1.7,4.19c-2.12,1.71-4.71,2.57-7.77,2.57c-3.29,0-5.7-0.99-7.23-2.97   C921.48,267,920.71,263.96,920.71,259.86z"/>
		<path class="st1" d="M946.46,267.63c-2.97-3.06-4.46-6.87-4.46-11.42c0-4.6,1.49-8.38,4.46-11.36c3.03-3.02,6.94-4.53,11.77-4.53   c4.82,0,8.72,1.51,11.7,4.53c3.02,2.97,4.52,6.76,4.52,11.36c0,4.6-1.5,8.4-4.52,11.42c-2.97,2.97-6.88,4.46-11.7,4.46   C953.45,272.09,949.53,270.6,946.46,267.63z M947.75,256.21c0,3.2,0.97,5.79,2.9,7.77c1.98,2.03,4.51,3.04,7.57,3.04   s5.57-1,7.54-3.01c1.96-2,2.94-4.61,2.94-7.81c0-3.11-0.99-5.7-2.97-7.77c-1.94-2.03-4.44-3.04-7.5-3.04s-5.57,1.01-7.5,3.04   C948.74,250.42,947.75,253.01,947.75,256.21z"/>
		<path class="st1" d="M987.63,271.42h-5.4V241h5.4v3.58c1.81-2.75,4.36-4.12,7.64-4.12c2.11,0,3.7,0.38,4.73,1.15l-1.9,5.07   c-1.3-0.77-2.68-1.15-4.12-1.15c-2.75,0-4.87,1.44-6.36,4.33V271.42z"/>
</g>
</svg>
